<svg xmlns="http://www.w3.org/2000/svg" width="12.766" height="19.908" viewBox="0 0 12.766 19.908">
  <g id="Group_1006" data-name="Group 1006" transform="translate(0 0)">
    <g id="Group_1042" data-name="Group 1042" transform="translate(0 0)">
      <g id="Group_1041" data-name="Group 1041" transform="translate(0 0)">
        <path id="Path_842" data-name="Path 842" d="M324.271,15.581c.248-.293.5-.608.76-.945,2.031-2.667,3.061-5.23,3.061-7.62C328.093,3.147,325.23,0,321.71,0a6.393,6.393,0,0,0-5.881,4.285.557.557,0,0,0,.259.7.473.473,0,0,0,.639-.285,5.416,5.416,0,0,1,4.982-3.63,5.7,5.7,0,0,1,5.407,5.944c0,4.432-4.233,8.678-5.407,9.77-.259-.24-.666-.634-1.144-1.148a.514.514,0,0,0-.217-.237c-1.685-1.864-4.046-5.069-4.046-8.385a.49.49,0,1,0-.976,0c0,2.389,1.03,4.953,3.061,7.62.256.337.512.652.76.945-1.258.415-1.984,1.122-1.984,1.974,0,.718.53,1.351,1.492,1.782a8.435,8.435,0,0,0,6.106,0c.962-.431,1.492-1.064,1.492-1.782C326.255,16.7,325.529,16,324.271,15.581Zm-2.561,3.255c-2.309,0-3.569-.846-3.569-1.281,0-.283.573-.8,1.8-1.088a19.747,19.747,0,0,0,1.474,1.438.454.454,0,0,0,.6,0,19.738,19.738,0,0,0,1.474-1.438,4.224,4.224,0,0,1,1.348.536c.281.188.449.394.449.551C325.28,17.989,324.02,18.836,321.71,18.836Z" transform="translate(-315.327 0)" fill="rgba(226,78,89,0.55)"/>
      </g>
    </g>
    <g id="Group_1044" data-name="Group 1044" transform="translate(4.113 4.246)">
      <g id="Group_1043" data-name="Group 1043">
        <path id="Path_843" data-name="Path 843" d="M372.129,54.532a2.144,2.144,0,1,0,2.27,2.14A2.21,2.21,0,0,0,372.129,54.532Zm0,3.544a1.407,1.407,0,1,1,1.49-1.4A1.451,1.451,0,0,1,372.129,58.076Z" transform="translate(-369.859 -54.532)" fill="rgba(226,78,89,0.55)"/>
      </g>
    </g>
  </g>
</svg>
