<svg xmlns="http://www.w3.org/2000/svg" width="22.109" height="24.647" viewBox="0 0 22.109 24.647">
  <g id="Notice_20" transform="translate(-230.693 -193.301)">
    <path id="Subtraction_7" data-name="Subtraction 7" d="M1.669,1.669A1.67,1.67,0,0,1,0,0H3.337A1.67,1.67,0,0,1,1.669,1.669Z" transform="translate(240.135 216.28)" fill="#fff"/>
    <path id="Path_191" data-name="Path 191" d="M1343.153,1140.277c.445.588,1.113,1.718,4.415,1.718h11.745c3.168,0,4.1-.893,4.449-1.718-2.909-3-1.819-5.054-1.868-7.633s-.795-9.873-8.381-9.873-8.312,7.359-8.324,9.873C1345.173,1135.254,1345.941,1137.485,1343.153,1140.277Z" transform="translate(-1111.711 -928.72)" fill="none" stroke="#fff" stroke-linecap="round" stroke-linejoin="round" stroke-width="1.5"/>
  </g>
</svg>
